<svg width="24" height="48" viewBox="0 0 24 48" fill="none" xmlns="http://www.w3.org/2000/svg">
  <path d="M0.337402 40.3472H1.58178V37.9963V36.7078H2.35952C2.94282 36.7078 3.25392 36.9832 3.25392 37.8783V40.3373H4.49829V37.5635C4.49829 37.2389 4.45941 36.9537 4.39135 36.7078H4.9941C5.5774 36.7078 5.8885 36.9832 5.8885 37.8783V40.3373H7.13288V37.5635C7.13288 36.1274 6.44263 35.5864 5.46074 35.5864C3.75944 35.5864 2.05814 35.5864 0.356844 35.5864V40.3472H0.337402Z" fill="#3C3C3B"/>
  <path d="M21.8903 46.6721C23.1833 46.6721 23.7958 46.0032 23.7958 45.1179C23.7958 44.1245 23.1639 43.8884 22.1042 43.4949C21.6181 43.3179 21.3751 43.1703 21.3751 42.9638C21.3751 42.6982 21.6376 42.5998 21.8417 42.5998C22.2111 42.5998 22.6486 42.7572 23.0181 43.131L23.6597 42.1375C23.0958 41.6949 22.5417 41.5178 21.8709 41.5178C20.8501 41.5178 20.0918 42.0982 20.0918 42.9933C20.0918 43.9671 20.8015 44.3507 21.6084 44.6261C22.2403 44.8425 22.4931 44.9507 22.4931 45.1671C22.4931 45.413 22.2792 45.5802 21.9001 45.5802C21.3556 45.5802 20.9279 45.3835 20.5293 45.0097L19.8974 45.9442C20.4223 46.4065 21.1029 46.6721 21.8903 46.6721Z" fill="#3C3C3B"/>
  <path d="M16.2423 46.6721C17.5353 46.6721 18.1477 46.0032 18.1477 45.1179C18.1477 44.1245 17.5255 43.8884 16.4561 43.4949C15.97 43.3179 15.727 43.1703 15.727 42.9638C15.727 42.6982 15.9895 42.5998 16.1936 42.5998C16.5534 42.5998 17.0006 42.7572 17.37 43.131L18.0116 42.1375C17.4478 41.6949 16.8936 41.5178 16.2131 41.5178C15.1923 41.5178 14.434 42.0982 14.434 42.9933C14.434 43.9671 15.1437 44.3507 15.9603 44.6261C16.5922 44.8425 16.845 44.9507 16.845 45.1671C16.845 45.413 16.6311 45.5802 16.252 45.5802C15.7076 45.5802 15.2798 45.3835 14.8812 45.0097L14.2493 45.9442C14.784 46.4065 15.4548 46.6721 16.2423 46.6721Z" fill="#3C3C3B"/>
  <path d="M21.7738 36.6783C22.3182 36.6783 22.6488 37.0029 22.7752 37.5045H20.7336C20.8794 36.9734 21.2683 36.6783 21.7738 36.6783ZM24.0001 37.957C24.0001 36.5898 23.0863 35.5864 21.7835 35.5864C20.4128 35.5864 19.4308 36.5603 19.4308 37.9964C19.4308 39.462 20.4322 40.426 21.8516 40.426C22.8821 40.426 23.4849 40.0423 23.8737 39.5309L23.0668 38.7734C22.8238 39.0784 22.4543 39.3046 21.9391 39.3046C21.3169 39.3046 20.8697 38.9702 20.7239 38.3997H23.9709C23.9807 38.3308 24.0001 38.1144 24.0001 37.957Z" fill="#3C3C3B"/>
  <path d="M10.6522 35.6553H9.40781V40.3473H10.6522V35.6553Z" fill="#3C3C3B"/>
  <path d="M10.0398 35.0258C10.487 35.0258 10.8272 34.6815 10.8272 34.2487C10.8272 33.8258 10.487 33.4815 10.0398 33.4815C9.58286 33.4815 9.25232 33.8258 9.25232 34.2487C9.25232 34.6815 9.59258 35.0258 10.0398 35.0258Z" fill="#3C3C3B"/>
  <path fill-rule="evenodd" clip-rule="evenodd" d="M9.56319 45.4326C8.81462 45.4326 8.3577 44.872 8.3577 44.1146C8.3577 43.2489 8.86323 42.7473 9.56319 42.6981H10.8659V44.0162V44.1146C10.8659 44.872 10.2145 45.4326 9.56319 45.4326ZM9.35903 46.6524C10.0104 46.6524 10.4576 46.3966 10.8173 45.9441L10.8659 45.9933V46.554H12.0714V41.6358C11.1187 41.6358 10.3604 41.5866 9.46597 41.5866C8.10493 41.5866 7.00638 42.6489 7.00638 44.1244C7.00638 45.5802 8.00772 46.6524 9.35903 46.6524Z" fill="#3C3C3B"/>
  <path fill-rule="evenodd" clip-rule="evenodd" d="M2.85522 45.4326C3.61351 45.4326 4.06071 44.8719 4.06071 44.1145C4.06071 43.2489 3.5649 42.7473 2.85522 42.6981H1.55251V44.0161V44.1145C1.55251 44.8719 2.20386 45.4326 2.85522 45.4326ZM3.05938 46.6522C2.40802 46.6522 1.9511 46.3965 1.60112 45.944L1.55251 45.9932V47.9998H0.347015V41.6358C1.29974 41.6358 2.05804 41.5866 2.96216 41.5866C4.31348 41.5866 5.42175 42.6489 5.42175 44.1243C5.42175 45.5801 4.42042 46.6522 3.05938 46.6522Z" fill="#3C3C3B"/>
  <path d="M13.0338 40.3472H14.2782V37.9963V36.7078H15.3184C15.9017 36.7078 16.2128 36.9832 16.2128 37.8783V40.3373H17.4572V37.5635C17.4572 36.1274 16.767 35.5864 15.7753 35.5864C14.7351 35.5864 14.3949 35.5864 13.0436 35.5864V40.3472H13.0338Z" fill="#3C3C3B"/>
  <path d="M12.1214 24.3168C15.3831 24.2816 18.3325 22.9215 20.4839 20.7525C22.0106 19.2049 23.1325 17.2469 23.653 15.0427C23.6877 14.8903 23.7224 14.7496 23.7455 14.6089C23.7687 14.4565 23.8034 14.3158 23.8265 14.1634V14.1517C23.8496 13.9993 23.8728 13.8586 23.8959 13.7062C23.8959 13.6593 23.9075 13.6124 23.9075 13.5537C23.9306 13.4013 23.9422 13.2489 23.9537 13.0965C23.9537 13.0496 23.9653 13.0027 23.9653 12.9441V12.9323V12.9206C23.9653 12.8737 23.9653 12.8268 23.9653 12.7799C23.9653 12.733 23.9653 12.6744 23.9769 12.6275C23.9769 12.5689 23.9769 12.522 23.9769 12.4751V12.3227V12.3109C23.9769 12.264 23.9769 12.2171 23.9769 12.1585C23.9769 8.79362 22.6352 5.75699 20.4607 3.5528C20.426 3.51763 20.3913 3.48245 20.3566 3.44728C20.3219 3.41211 20.2872 3.37693 20.2525 3.35348C20.2178 3.31831 20.1831 3.29486 20.1484 3.25969C20.1137 3.22452 20.079 3.20107 20.0559 3.16589L19.9981 3.10727L19.9634 3.0721H19.9518L19.9171 3.04865C19.894 3.0252 19.8708 3.00175 19.8477 2.9783C19.813 2.95485 19.7783 2.91968 19.7436 2.88451L19.6858 2.83761L19.628 2.79071L19.5701 2.74381L19.5239 2.70864L19.466 2.65002L19.4082 2.61485L19.3504 2.56795L19.3041 2.53277L19.2463 2.48588L19.1884 2.4507L19.1306 2.40381L19.0843 2.32173L19.0034 2.26311L18.9571 2.22794L18.8877 2.18104L18.8414 2.14587L18.772 2.09897L18.7142 2.0638L18.6448 2.0169L18.5986 1.99345L18.5176 1.93483L18.4713 1.91138L18.4019 1.86448L18.3557 1.82931C18.3325 1.81758 18.3094 1.80586 18.2747 1.78241L18.2284 1.74724L18.159 1.70034L18.1012 1.66517L18.0202 1.61827L17.974 1.59482L17.8814 1.5362L17.8467 1.51275L17.7542 1.46585L17.7195 1.4424L17.627 1.3955L17.5807 1.37206L17.4998 1.32516L17.4535 1.30171L17.3725 1.26654L17.3263 1.24309L17.2453 1.20791L17.1875 1.18447L17.1065 1.14929L17.0487 1.12584L16.9677 1.09067L16.9099 1.06722L16.8867 1.03205L16.8405 1.0086L16.748 0.973426L16.7017 0.949977L16.6092 0.903079L16.586 0.891355L16.4935 0.856181L16.4472 0.832733L16.3547 0.797559L16.3084 0.785835L16.2159 0.750662L16.1581 0.727213L16.0771 0.692039L16.0308 0.680315L15.9383 0.645142L15.892 0.633417L15.788 0.598244L15.7533 0.58652L15.6607 0.551346L15.6145 0.539622L15.5219 0.516173L15.4872 0.504449L15.3831 0.469275L15.3484 0.457551L15.2443 0.434102L15.2096 0.422378C15.1749 0.410653 15.1402 0.398929 15.094 0.398929L15.0708 0.387204C15.0361 0.37548 15.0014 0.363756 14.9552 0.363756L14.9205 0.340307C14.8858 0.328582 14.8395 0.316858 14.8048 0.316858L14.7701 0.305133L14.666 0.281685L14.6198 0.26996L14.5157 0.246511L14.481 0.234787L14.3769 0.211338H14.3422L14.2381 0.187889H14.2034C14.1687 0.176165 14.134 0.176165 14.0877 0.16444H14.0646C14.0299 0.16444 13.9836 0.152716 13.9489 0.140991H13.9142C13.8795 0.140991 13.8333 0.129267 13.7986 0.129267L13.7639 0.117543L13.6482 0.0940938H13.6135C13.5788 0.0940938 13.5325 0.0823694 13.4978 0.0823694H13.4747C13.4284 0.070645 13.3937 0.070645 13.3475 0.0589205H13.3359C13.2896 0.0589205 13.2434 0.0471961 13.1971 0.0471961H13.174C13.1393 0.0471961 13.093 0.0354717 13.0583 0.0354717H13.0236C12.9889 0.0354717 12.9426 0.0237473 12.908 0.0237473H12.8848C12.8386 0.0237473 12.7923 0.0120228 12.7576 0.0120228H12.7229C12.6766 0.0120228 12.6304 0.0120228 12.5957 0.000298408H12.561C12.5263 0.000298408 12.48 0.000298408 12.4453 0.000298408H12.4222C12.3759 0.000298408 12.3296 0.000298408 12.2949 0.000298408C12.2487 0.000298408 12.1908 0.000298408 12.1446 0.000298408H12.0173C8.68626 -0.0231504 5.6906 1.33688 3.51614 3.54107C1.34169 5.74527 0 8.78189 0 12.1468C0 13.1434 0.115663 14.1165 0.346988 15.0427C0.86747 12.8385 1.9894 10.8806 3.51614 9.33294C5.6906 7.12875 8.68626 5.76872 11.9942 5.76872H12.1214C13.8101 5.80389 15.3369 6.50735 16.4472 7.6329C17.5807 8.78189 18.2863 10.3764 18.2863 12.1351C18.2863 13.1786 18.0318 14.1634 17.6039 15.031L17.5807 15.1014L17.5692 15.1248V15.1365L17.546 15.1952L17.5113 15.2538L17.4998 15.2655L17.4882 15.2889L17.4766 15.3124L17.4535 15.3593L17.4419 15.371L17.4304 15.3827L17.3957 15.4296L17.361 15.4883V15.5L17.3378 15.5469L17.3263 15.5703L17.3031 15.6172L17.2684 15.6759V15.6876L17.2337 15.7345L17.199 15.7931V15.8048L17.1643 15.8517L17.1181 15.9103L17.1065 15.9221L17.0718 15.969L17.0371 16.0159L17.0255 16.0276L17.014 16.0393L16.9793 16.0862L16.9446 16.1331H16.933C16.9099 16.1683 16.8752 16.2035 16.8405 16.2386L16.8058 16.2855H16.7942L16.7595 16.3324L16.7133 16.3793L16.7017 16.391L16.6554 16.4379L16.6092 16.4966L16.5513 16.5552L16.4935 16.6138L16.4357 16.6607L16.3778 16.7076L16.3316 16.7545L16.2737 16.8014L16.239 16.8366L16.2159 16.8483L16.2043 16.86L16.1812 16.8717L16.1465 16.9069L16.1002 16.9421L16.0655 16.9655L16.0424 16.989L16.0193 17.0124L15.9846 17.0359L15.9614 17.0593L15.9383 17.0828L15.9036 17.1062L15.8689 17.1297L15.8458 17.1414L15.8111 17.1649L15.788 17.1883L15.7533 17.2118L15.7186 17.2352L15.6954 17.2469L15.6607 17.2704L15.6376 17.2938L15.4988 17.4462L15.4757 17.4697L15.441 17.4931L15.4178 17.5049L15.3716 17.54L15.3484 17.5518L15.3022 17.5752L15.279 17.5987L15.2443 17.6221L15.2212 17.6338L15.1749 17.6573L15.1634 17.669L15.1171 17.6925H15.094L15.0477 17.7159L15.0361 17.7276L14.9899 17.7511L14.9667 17.7628L14.9205 17.7863L14.8973 17.798L14.8511 17.8214L14.828 17.8331L14.7817 17.8566H14.7701L14.7123 17.8918H14.7007L14.6429 17.9152L14.6198 17.9269L14.5735 17.9504H14.5504L14.4925 17.9738H14.481L14.4231 17.9973L14.4 18.009L14.3537 18.0325H14.3422C13.9605 18.1966 13.5441 18.3139 13.1277 18.3959C13.0005 18.4194 12.8733 18.4311 12.746 18.4545C12.6882 18.4663 12.6419 18.4663 12.5957 18.478H12.5263H12.4569H12.3875H12.3759H12.3065H12.2949H12.2255H12.1446C12.1099 18.478 12.0636 18.478 12.0173 18.478C10.2824 18.478 8.7094 17.7628 7.5759 16.6138C7.11325 16.1448 6.72 15.6055 6.41928 15.0076C5.97976 15.8752 5.73687 16.86 5.73687 17.9035C5.73687 19.6622 6.44241 21.2567 7.5759 22.4057C8.7094 23.5547 10.2824 24.2699 12.0173 24.2699L12.1214 24.3168ZM23.9884 12.7682C23.9884 12.7213 23.9884 12.6627 24 12.6158L23.9884 12.7682Z" fill="#05A3D3"/>
  <path d="M11.9942 5.76882C8.68626 5.76882 5.67904 7.12886 3.51614 9.33305C1.34169 11.5372 0 14.5739 0 17.9388C0 21.3037 1.34169 24.3403 3.51614 26.5445C5.6906 28.7487 8.68626 30.1087 11.9942 30.1087C15.3022 30.1087 18.3094 28.7487 20.4839 26.5445C22.6583 24.3403 24 21.3037 24 17.9388C24 16.9422 23.8843 15.9691 23.653 15.0428C23.121 17.2353 21.999 19.1933 20.4839 20.7526C18.3325 22.9217 15.3831 24.2817 12.1214 24.3169H11.9942C10.2593 24.3169 8.68626 23.6017 7.55277 22.4527C6.41928 21.3037 5.71374 19.7092 5.71374 17.9505C5.71374 16.1918 6.41928 14.5973 7.55277 13.4366C8.68626 12.2876 10.2593 11.5724 11.9942 11.5724C13.7292 11.5724 15.3022 12.2759 16.4357 13.4366C16.8983 13.9056 17.2916 14.4449 17.5923 15.0546C18.0318 14.187 18.2747 13.2021 18.2747 12.1586C18.2747 10.4 17.5692 8.80545 16.4357 7.65646C15.3253 6.53091 13.7986 5.82745 12.1099 5.79227H11.9942V5.76882Z" fill="#DE2B1B"/>
  <path d="M12.0173 5.76882C11.6472 5.76882 11.2887 5.78055 10.9301 5.81572C12.3643 5.99159 13.6482 6.64816 14.6198 7.63301C15.7532 8.782 16.4588 10.3765 16.4588 12.1352C16.4588 12.5338 16.4241 12.9324 16.3547 13.3076C16.3894 13.3428 16.4357 13.3897 16.4704 13.4249C16.933 13.8938 17.3263 14.4332 17.627 15.0428C18.0665 14.1752 18.3094 13.1904 18.3094 12.1469C18.3094 10.3882 17.6154 8.79372 16.4704 7.64473C15.36 6.51919 13.8332 5.81572 12.1446 5.78055H12.0173V5.76882Z" fill="#B72118"/>
  <path d="M12.1331 24.3167C12.48 24.3167 12.827 24.2933 13.174 24.2581C11.7745 24.0705 10.5022 23.414 9.55378 22.4408C8.42028 21.2918 7.71474 19.6973 7.71474 17.9386C7.71474 17.5752 7.73787 17.2234 7.80727 16.8717C7.72631 16.8013 7.64534 16.7193 7.57595 16.6489C7.11329 16.1799 6.72004 15.6406 6.41932 15.0427C5.9798 15.9103 5.73691 16.8951 5.73691 17.9386C5.73691 19.6973 6.43088 21.2918 7.57595 22.4408C8.70944 23.5898 10.2825 24.305 12.0174 24.305L12.1331 24.3167Z" fill="#007DAA"/>
</svg>
