<svg width="48" height="48" viewBox="0 0 48 48" fill="none" xmlns="http://www.w3.org/2000/svg">
  <g clip-path="url(#clip0_1_27530)">
    <ellipse cx="24" cy="46" rx="3" ry="2" fill="#A3A8C2"/>
    <g filter="url(#filter0_dd_1_27530)">
      <path d="M24 46C24.5472 42.1621 26.9357 41.3707 30 40C37.9891 37.3683 44 30.0036 44 21.0667C44 9.99165 35.026 1 23.9726 1C12.9193 1 4 10.0465 4 21.1216C4 30.0036 10.0109 37.3683 18 40C21.119 41.3159 23.3981 42.1621 24 46Z" fill="#40BF6A"/>
      <path fill-rule="evenodd" clip-rule="evenodd" d="M29.2769 38.1325L29.3743 38.1004C36.62 35.7136 42 29.0619 42 21.0667C42 11.0925 33.9177 3 23.9726 3C14.0418 3 6 11.1331 6 21.1216C6 29.0587 11.3767 35.7125 18.6258 38.1004L18.7027 38.1258L18.7774 38.1573C18.8912 38.2053 19.0065 38.2536 19.1228 38.3024C20.4885 38.8749 22.0076 39.5117 23.2185 40.513C23.4996 40.7455 23.7614 40.994 24.0034 41.2606C24.2488 40.9961 24.5138 40.7501 24.7976 40.5204C25.93 39.6036 27.3519 38.9796 28.6103 38.4274C28.8058 38.3416 28.9974 38.2575 29.1834 38.1743L29.2769 38.1325ZM25.1633 42.9831C24.5908 43.7285 24.1874 44.6856 24 46C23.7942 44.688 23.3925 43.7256 22.8281 42.9745C21.792 41.5956 20.2078 40.9291 18.2828 40.1191C18.1893 40.0798 18.095 40.0401 18 40C10.0109 37.3683 4 30.0036 4 21.1216C4 10.0465 12.9193 1 23.9726 1C35.026 1 44 9.99165 44 21.0667C44 30.0036 37.9891 37.3683 30 40C29.7919 40.0931 29.5869 40.1835 29.3853 40.2724C27.6359 41.044 26.149 41.6999 25.1633 42.9831Z" fill="white"/>
    </g>
    <path d="M24 33C30.6274 33 36 27.6274 36 21C36 14.3726 30.6274 9 24 9C17.3726 9 12 14.3726 12 21C12 27.6274 17.3726 33 24 33Z" fill="white"/>
    <path fill-rule="evenodd" clip-rule="evenodd" d="M18.4655 14.9447C18.348 15.3885 18.2855 15.8537 18.2855 16.3332C18.2855 19.4014 20.8439 21.8888 23.9998 21.8888C27.1558 21.8888 29.7142 19.4014 29.7142 16.3332C29.7142 15.8537 29.6517 15.3885 29.5342 14.9447H18.4655Z" fill="#52597A"/>
    <path fill-rule="evenodd" clip-rule="evenodd" d="M18.6548 12.8611H17.5516C17.1681 12.8611 16.8572 13.1721 16.8572 13.5556C16.8572 13.9391 17.1681 14.25 17.5516 14.25H30.4485C30.8321 14.25 31.143 13.9391 31.143 13.5556C31.143 13.1721 30.8321 12.8611 30.4485 12.8611H29.3457C29.1619 10.1465 26.8389 8 24.0002 8C21.1616 8 18.8385 10.1465 18.6548 12.8611ZM25.0721 12.8611H25.0718C24.8497 13.0234 24.5874 13.1364 24.3021 13.1837C24.204 13.1999 24.1033 13.2084 24.0004 13.2084C23.0142 13.2084 22.2147 12.4311 22.2147 11.4723C22.2147 10.5134 23.0142 9.73615 24.0004 9.73615C24.9867 9.73615 25.7862 10.5134 25.7862 11.4723C25.7862 12.0402 25.5057 12.5444 25.0721 12.8611Z" fill="#FB6815"/>
    <path fill-rule="evenodd" clip-rule="evenodd" d="M21.1275 22.2037C17.8488 22.9396 15.2035 24.9041 14.0002 27.4444C15.539 30.693 19.436 33 24.0002 33C28.5645 33 32.4615 30.693 34.0003 27.4444C32.7969 24.9039 30.1514 22.9393 26.8724 22.2036C26.1123 22.8713 25.1049 23.278 23.9998 23.278C22.8948 23.278 21.8875 22.8714 21.1275 22.2037Z" fill="#52597A"/>
  </g>
  <defs>
    <filter id="filter0_dd_1_27530" x="2" y="0" width="44" height="50" filterUnits="userSpaceOnUse" color-interpolation-filters="sRGB">
      <feFlood flood-opacity="0" result="BackgroundImageFix"/>
      <feColorMatrix in="SourceAlpha" type="matrix" values="0 0 0 0 0 0 0 0 0 0 0 0 0 0 0 0 0 0 127 0" result="hardAlpha"/>
      <feOffset/>
      <feGaussianBlur stdDeviation="0.5"/>
      <feColorMatrix type="matrix" values="0 0 0 0 0 0 0 0 0 0 0 0 0 0 0 0 0 0 0.5 0"/>
      <feBlend mode="normal" in2="BackgroundImageFix" result="effect1_dropShadow_1_27530"/>
      <feColorMatrix in="SourceAlpha" type="matrix" values="0 0 0 0 0 0 0 0 0 0 0 0 0 0 0 0 0 0 127 0" result="hardAlpha"/>
      <feOffset dy="2"/>
      <feGaussianBlur stdDeviation="1"/>
      <feColorMatrix type="matrix" values="0 0 0 0 0 0 0 0 0 0 0 0 0 0 0 0 0 0 0.15 0"/>
      <feBlend mode="normal" in2="effect1_dropShadow_1_27530" result="effect2_dropShadow_1_27530"/>
      <feBlend mode="normal" in="SourceGraphic" in2="effect2_dropShadow_1_27530" result="shape"/>
    </filter>
    <clipPath id="clip0_1_27530">
      <rect width="48" height="48" fill="white"/>
    </clipPath>
  </defs>
</svg>
