<svg width="48" height="48" viewBox="0 0 48 48" fill="none" xmlns="http://www.w3.org/2000/svg">
  <g clip-path="url(#clip0_1_27531)">
    <ellipse cx="24" cy="46" rx="3" ry="2" fill="#A3A8C2"/>
    <g filter="url(#filter0_dd_1_27531)">
      <path d="M24 46C24.5472 42.1621 26.9357 41.3707 30 40C37.9891 37.3683 44 30.0036 44 21.0667C44 9.99165 35.026 1 23.9726 1C12.9193 1 4 10.0465 4 21.1216C4 30.0036 10.0109 37.3683 18 40C21.119 41.3159 23.3981 42.1621 24 46Z" fill="#295C95"/>
      <path fill-rule="evenodd" clip-rule="evenodd" d="M29.2769 38.1325L29.3743 38.1004C36.62 35.7136 42 29.0619 42 21.0667C42 11.0925 33.9177 3 23.9726 3C14.0418 3 6 11.1331 6 21.1216C6 29.0587 11.3767 35.7125 18.6258 38.1004L18.7027 38.1258L18.7774 38.1573C18.8912 38.2053 19.0065 38.2536 19.1228 38.3024C20.4885 38.8749 22.0076 39.5117 23.2185 40.513C23.4996 40.7455 23.7614 40.994 24.0034 41.2606C24.2488 40.9961 24.5138 40.7501 24.7976 40.5204C25.93 39.6036 27.3519 38.9796 28.6103 38.4274C28.8058 38.3416 28.9974 38.2575 29.1834 38.1743L29.2769 38.1325ZM25.1633 42.9831C24.5908 43.7285 24.1874 44.6856 24 46C23.7942 44.688 23.3925 43.7256 22.8281 42.9745C21.792 41.5956 20.2078 40.9291 18.2828 40.1191C18.1893 40.0798 18.095 40.0401 18 40C10.0109 37.3683 4 30.0036 4 21.1216C4 10.0465 12.9193 1 23.9726 1C35.026 1 44 9.99165 44 21.0667C44 30.0036 37.9891 37.3683 30 40C29.7919 40.0931 29.5869 40.1835 29.3853 40.2724C27.6359 41.044 26.149 41.6999 25.1633 42.9831Z" fill="white"/>
    </g>
    <path d="M24 33C30.6274 33 36 27.6274 36 21C36 14.3726 30.6274 9 24 9C17.3726 9 12 14.3726 12 21C12 27.6274 17.3726 33 24 33Z" fill="white"/>
    <path d="M30.6667 17.6667H26.5V22.6667H15.6667V25.1667H16.5C16.5 25.8297 16.7634 26.4656 17.2322 26.9344C17.7011 27.4033 18.337 27.6667 19 27.6667C19.6631 27.6667 20.2989 27.4033 20.7678 26.9344C21.2366 26.4656 21.5 25.8297 21.5 25.1667H26.5C26.5 25.8297 26.7634 26.4656 27.2322 26.9344C27.7011 27.4033 28.337 27.6667 29 27.6667C29.6631 27.6667 30.2989 27.4033 30.7678 26.9344C31.2366 26.4656 31.5 25.8297 31.5 25.1667H33.1667V21L30.6667 17.6667ZM19 26.4167C18.6685 26.4167 18.3505 26.285 18.1161 26.0505C17.8817 25.8161 17.75 25.4982 17.75 25.1667C17.75 24.8351 17.8817 24.5172 18.1161 24.2828C18.3505 24.0484 18.6685 23.9167 19 23.9167C19.3315 23.9167 19.6495 24.0484 19.8839 24.2828C20.1183 24.5172 20.25 24.8351 20.25 25.1667C20.25 25.4982 20.1183 25.8161 19.8839 26.0505C19.6495 26.285 19.3315 26.4167 19 26.4167ZM29 26.4167C28.6685 26.4167 28.3505 26.285 28.1161 26.0505C27.8817 25.8161 27.75 25.4982 27.75 25.1667C27.75 24.8351 27.8817 24.5172 28.1161 24.2828C28.3505 24.0484 28.6685 23.9167 29 23.9167C29.3315 23.9167 29.6495 24.0484 29.8839 24.2828C30.1183 24.5172 30.25 24.8351 30.25 25.1667C30.25 25.4982 30.1183 25.8161 29.8839 26.0505C29.6495 26.285 29.3315 26.4167 29 26.4167ZM28.1667 21V18.9167H30.25L31.8833 21H28.1667ZM29 16.8333H25.6667V21.8333H16.5L15.3083 17.6667H14.8333V16H24.8333L25.6667 15.1667H29V16.8333Z" fill="#52597A"/>
  </g>
  <defs>
    <filter id="filter0_dd_1_27531" x="2" y="0" width="44" height="50" filterUnits="userSpaceOnUse" color-interpolation-filters="sRGB">
      <feFlood flood-opacity="0" result="BackgroundImageFix"/>
      <feColorMatrix in="SourceAlpha" type="matrix" values="0 0 0 0 0 0 0 0 0 0 0 0 0 0 0 0 0 0 127 0" result="hardAlpha"/>
      <feOffset/>
      <feGaussianBlur stdDeviation="0.5"/>
      <feColorMatrix type="matrix" values="0 0 0 0 0 0 0 0 0 0 0 0 0 0 0 0 0 0 0.5 0"/>
      <feBlend mode="normal" in2="BackgroundImageFix" result="effect1_dropShadow_1_27531"/>
      <feColorMatrix in="SourceAlpha" type="matrix" values="0 0 0 0 0 0 0 0 0 0 0 0 0 0 0 0 0 0 127 0" result="hardAlpha"/>
      <feOffset dy="2"/>
      <feGaussianBlur stdDeviation="1"/>
      <feColorMatrix type="matrix" values="0 0 0 0 0 0 0 0 0 0 0 0 0 0 0 0 0 0 0.15 0"/>
      <feBlend mode="normal" in2="effect1_dropShadow_1_27531" result="effect2_dropShadow_1_27531"/>
      <feBlend mode="normal" in="SourceGraphic" in2="effect2_dropShadow_1_27531" result="shape"/>
    </filter>
    <clipPath id="clip0_1_27531">
      <rect width="48" height="48" fill="white"/>
    </clipPath>
  </defs>
</svg>
