<svg xmlns="http://www.w3.org/2000/svg" viewBox="0 0 256 256">
  <path fill="#05a3d3" d="M128.7 206.8c27.7-.3 52.8-11.9 71.1-30.3 13-13.2 22.5-29.8 26.9-48.5.3-1.3.6-2.5.8-3.7.2-1.3.5-2.5.7-3.8v-.1c.2-1.3.4-2.5.6-3.8 0-.4.1-.8.1-1.3.2-1.3.3-2.6.4-3.9 0-.4.1-.8.1-1.3v-1.4c0-.4 0-.9.1-1.3v-4c0-28.6-11.4-54.4-29.9-73.2l-.9-.9c-.3-.3-.6-.6-.9-.8-.3-.3-.6-.5-.9-.8-.3-.3-.6-.5-.8-.8l-.5-.5-.3-.3h-.1l-.3-.2-.6-.6c-.3-.2-.6-.5-.9-.8l-.5-.4-.5-.4-.5-.4-.4-.3-.5-.5-.5-.3-.5-.4-.4-.3-.5-.4-.5-.3-.5-.4-.4-.7-.7-.5-.4-.3-.6-.4-.4-.3-.6-.4-.5-.3-.6-.4-.4-.2-.7-.5-.4-.2-.6-.4-.4-.3c-.2-.1-.4-.2-.7-.4l-.4-.3-.6-.4-.5-.3-.7-.4-.4-.2-.8-.5-.3-.2-.8-.4-.3-.2-.8-.4-.4-.2-.7-.4-.4-.2-.7-.3-.4-.2-.7-.3-.5-.2-.3-.2-.5-.2-.7-.3-.5-.2-.2-.3-.4-.2-.7-.3-.4-.2-.8-.4-.2-.1-.8-.3-.4-.2-.8-.3-.4-.1-.8-.3-.4-.2-.7-.3-.4-.1-.8-.3-.4-.1-.9-.3-.3-.1-.8-.3-.4-.1-.8-.2-.3-.1-.8-.3-.3-.1-.9-.2-.3-.1c-.3-.1-.6-.2-1-.2l-.2-.1c-.3-.1-.6-.2-1-.2l-.3-.2c-.3-.1-.7-.2-1-.2l-.3-.1-.9-.2-.4-.1-.8-.2-.3-.1-.9-.2h-.3l-.9-.2h-.3c-.3-.1-.6-.1-1-.2h-.2c-.3 0-.7-.1-1-.2h-.3c-.3 0-.7-.1-1-.1l-.2-.1-1-.2h-.3c-.3 0-.7-.1-1-.1h-.2c-.4-.1-.7-.1-1.1-.2-.4 0-.8-.1-1.2-.1h-.2c-.3 0-.7-.1-1-.1h-.3c-.3 0-.7-.1-1-.1h-.2c-.4 0-.8-.1-1.1-.1h-.3c-.4 0-.8 0-1.1-.1h-5C99.5-.2 74 11.4 55.5 30.1 37 48.8 25.6 74.7 25.6 103.3c0 8.5 1 16.7 3 24.6 4.4-18.7 14-35.4 26.9-48.5C74 60.6 99.5 49 127.6 49h1.1c14.4.3 27.3 6.3 36.8 15.9 9.6 9.8 15.6 23.3 15.6 38.3 0 8.9-2.2 17.2-5.8 24.6l-.2.6-.1.2v.1l-.2.5-.3.5-.1.1-.1.2-.1.2-.2.4-.1.1-.1.1-.3.4-.3.5v.1l-.2.4-.1.2-.2.4-.3.5v.1l-.3.4-.3.5v.1l-.3.4-.4.5-.1.1-.3.4-.3.4-.1.1-.1.1-.3.4-.3.4h-.1c-.2.3-.5.6-.8.9l-.3.4h-.1l-.3.4-.4.4-.1.1-.4.4-.4.5-.5.5-.5.5-.5.4-.5.4-.4.4-.5.4-.3.3-.2.1-.1.1-.2.1-.3.3-.4.3-.3.2-.2.2-.2.2-.3.2-.2.2-.2.2-.3.2-.3.2-.2.1-.3.2-.2.2-.3.2-.3.2-.2.1-.3.2-.2.2-1.2 1.3-.2.2-.3.2-.2.1-.4.3-.2.1-.4.2-.2.2-.3.2-.2.1-.4.2-.1.1-.4.2h-.2l-.4.2-.1.1-.4.2-.2.1-.4.2-.2.1-.4.2-.2.1-.4.2h-.1l-.5.3h-.1l-.5.2-.2.1-.4.2h-.2l-.5.2h-.1l-.5.2-.2.1-.4.2h-.1c-3.2 1.4-6.8 2.4-10.3 3.1-1.1.2-2.2.3-3.2.5-.5.1-.9.1-1.3.2h-5c-14.8 0-28.1-6.1-37.8-15.9-3.9-4-7.3-8.6-9.8-13.7-3.7 7.4-5.8 15.8-5.8 24.6 0 15 6 28.5 15.6 38.3 9.6 9.8 23 15.9 37.8 15.9l1.4.4zm100.9-98.2c0-.4 0-.9.1-1.3l-.1 1.3z"/>
  <path fill="#de2b1b" d="M127.6 49c-28.1 0-53.7 11.6-72.1 30.3-18.5 18.8-29.9 44.6-29.9 73.2S37 207 55.5 225.7c18.5 18.7 44 30.3 72.1 30.3 28.1 0 53.7-11.6 72.2-30.3 18.5-18.7 29.9-44.6 29.9-73.2 0-8.5-1-16.7-3-24.6-4.5 18.6-14.1 35.3-26.9 48.5-18.3 18.4-43.4 30-71.1 30.3h-1.1c-14.8 0-28.1-6.1-37.8-15.9-9.6-9.8-15.6-23.3-15.6-38.3s6-28.5 15.6-38.4c9.6-9.8 23-15.9 37.8-15.9 14.8 0 28.1 6 37.8 15.9 3.9 4 7.3 8.6 9.8 13.8 3.7-7.4 5.8-15.8 5.8-24.6 0-15-6-28.5-15.6-38.3-9.4-9.6-22.4-15.6-36.8-15.9h-1V49z"/>
  <path fill="#b72118" d="M127.8 49c-3.1 0-6.2.1-9.2.4 12.2 1.5 23.1 7.1 31.4 15.5 9.6 9.8 15.6 23.3 15.6 38.3 0 3.4-.3 6.8-.9 10l1 1c3.9 4 7.3 8.6 9.8 13.8 3.7-7.4 5.8-15.8 5.8-24.6 0-15-5.9-28.5-15.6-38.3-9.4-9.6-22.4-15.6-36.8-15.9l-1.1-.2z"/>
  <path fill="#007daa" d="M128.8 206.8c2.9 0 5.9-.2 8.9-.5-11.9-1.6-22.7-7.2-30.8-15.5-9.6-9.8-15.6-23.3-15.6-38.3 0-3.1.2-6.1.8-9.1-.7-.6-1.4-1.3-2-1.9-3.9-4-7.3-8.6-9.8-13.7-3.7 7.4-5.8 15.8-5.8 24.6 0 15 5.9 28.5 15.6 38.3 9.6 9.8 23 15.9 37.8 15.9l.9.2z"/>
</svg>
