<svg width="24" height="24" viewBox="0 0 24 24" fill="none" xmlns="http://www.w3.org/2000/svg">
  <path fill-rule="evenodd" clip-rule="evenodd" d="M12 19.5C16.1421 19.5 19.5 16.1421 19.5 12C19.5 7.85786 16.1421 4.5 12 4.5C7.85786 4.5 4.5 7.85786 4.5 12C4.5 16.1421 7.85786 19.5 12 19.5ZM12 22C17.5228 22 22 17.5228 22 12C22 6.47715 17.5228 2 12 2C6.47715 2 2 6.47715 2 12C2 17.5228 6.47715 22 12 22Z" fill="#6C7FE0"/>
  <path fill-rule="evenodd" clip-rule="evenodd" d="M15.7543 8.02296C14.1631 8.94553 12.5788 9.87716 10.9788 10.7825C10.4717 11.0694 9.7921 11.3832 9.41583 11.8395C8.82229 12.5594 8.87769 13.6991 9.4955 14.3751C9.5159 14.3975 9.53701 14.4196 9.55872 14.4412C9.58036 14.4629 9.60243 14.484 9.62485 14.5044C10.1269 14.9632 10.8452 15.1125 11.4931 14.9144C12.2561 14.6811 12.5977 14.0738 12.9735 13.4258C13.9747 11.6991 14.9759 9.97248 15.9771 8.24578C16.0189 8.1735 15.9994 8.09683 15.9513 8.04873C15.9032 8.00063 15.8265 7.98102 15.7543 8.02296Z" fill="#6C7FE0"/>
</svg>
