<svg xmlns="http://www.w3.org/2000/svg" fill="none" viewBox="0 0 24 24">
  <path fill="#52597A" fill-rule="evenodd" d="M12.0002 2.37499c0-.75939.618-1.383853 1.3714-1.28917 1.2594.15825 2.4854.53373 3.6225 1.1131 1.5467.78809 2.8849 1.93105 3.9053 3.33543 1.0203 1.40439 1.6938 3.03032 1.9654 4.74485.1996 1.2605.1778 2.5425-.0608 3.7891-.1428.7459-.9277 1.1406-1.6499.906-.7222-.2347-1.1051-1.0108-.9935-1.7619.1229-.8275.1197-1.6715-.012-2.503-.2037-1.2859-.7088-2.50535-1.474-3.55864-.7653-1.05329-1.769-1.91051-2.929-2.50157-.7501-.3822-1.5518-.6461-2.3768-.78488-.7488-.12598-1.3686-.72993-1.3686-1.48932Zm0 3.85c0-.67655.5525-1.23588 1.2188-1.11808.6797.12018 1.3401.34063 1.9591.65603.9843.50152 1.8359 1.22886 2.4852 2.12255.6493.8937 1.0779 1.92839 1.2507 3.01951.1087.6861.1143 1.3824.0185 2.066-.0938.67-.7965 1.0226-1.44.8136-.6434-.2091-.9773-.9044-.9469-1.5803.0137-.3053-.0033-.6122-.0514-.9161-.1124-.7092-.3909-1.38173-.813-1.96263-.422-.58091-.9756-1.05368-1.6154-1.37966-.2741-.13969-.5608-.25072-.8554-.33201-.6521-.17995-1.2102-.71236-1.2102-1.38891ZM4.71921 10.1919c-1.28051 1.263-1.90857 2.7824-1.88418 4.5581-.03658 1.7757.57928 3.3013 1.84759 4.5768 1.2805 1.263 2.80492 1.8758 4.57323 1.8383 1.15855 0 2.20735-.2689 3.14635-.8066.9391-.5502 1.6708-1.3068 2.1952-2.2697l-1.8659-1.3505c-.8659 1.388-2.0183 2.0821-3.45736 2.0821-1.12196 0-2.0549-.3814-2.79881-1.1442-.73172-.7628-1.09758-1.732-1.09758-2.9074 0-1.1755.36586-2.1509 1.09758-2.9262.74391-.7753 1.67685-1.163 2.79881-1.163 1.43906 0 2.59146.6941 3.45736 2.0821l1.8659-1.3505c-.5366-.9629-1.2744-1.71321-2.2135-2.25092-.9268-.55022-1.9634-.82533-3.10976-.82533-1.75612-.03751-3.27443.58148-4.55493 1.85695Z" clip-rule="evenodd"/>
</svg>
