<svg xmlns="http://www.w3.org/2000/svg" fill="none" viewBox="0 0 24 24">
  <path fill="#0094FF" fill-rule="evenodd" d="M12.0001 2.37499c0-.75939.6179-1.383853 1.3714-1.28917 1.2594.15825 2.4854.53373 3.6225 1.1131 1.5467.78809 2.8849 1.93105 3.9052 3.33543 1.0204 1.40439 1.6939 3.03032 1.9654 4.74485.1997 1.2605.1779 2.5425-.0607 3.7891-.1428.7459-.9277 1.1406-1.6499.906-.7222-.2347-1.1051-1.0108-.9935-1.7619.1229-.8275.1197-1.6715-.012-2.503-.2037-1.2859-.7088-2.50535-1.474-3.55864-.7653-1.05329-1.769-1.91051-2.929-2.50157-.7501-.3822-1.5518-.6461-2.3768-.78488-.7488-.12598-1.3686-.72993-1.3686-1.48932Zm0 3.85c0-.67655.5525-1.23588 1.2187-1.11808.6797.12018 1.3402.34063 1.9592.65603.9843.50152 1.8359 1.22886 2.4852 2.12255.6493.8937 1.0779 1.92839 1.2507 3.01951.1087.6861.1142 1.3824.0185 2.066-.0938.67-.7966 1.0226-1.44.8136-.6434-.2091-.9773-.9044-.9469-1.5803.0137-.3053-.0033-.6122-.0515-.9161-.1123-.7092-.3909-1.38173-.8129-1.96263-.4221-.58091-.9756-1.05368-1.6154-1.37966-.2741-.13969-.5608-.25072-.8554-.33201-.6522-.17995-1.2102-.71236-1.2102-1.38891Zm.637 12.20491.6331 1.4716h2.4811L10.7206 8.4028h-.76999L4.90283 19.9015h2.48111l.63311-1.4716h4.62005Zm-2.31-5.7151 1.5057 3.8158H8.82128l1.50582-3.8158Z" clip-rule="evenodd"/>
</svg>
